<?xml version="1.0" standalone="no"?>
<!DOCTYPE svg PUBLIC "-//W3C//DTD SVG 20010904//EN"
 "http://www.w3.org/TR/2001/REC-SVG-20010904/DTD/svg10.dtd">
<svg version="1.0" xmlns="http://www.w3.org/2000/svg"
 width="256.000000pt" height="256.000000pt" viewBox="0 0 256.000000 256.000000"
 preserveAspectRatio="xMidYMid meet">
<metadata>
Created by potrace 1.11, written by Peter Selinger 2001-2013
</metadata>
<g transform="translate(0.000000,256.000000) scale(0.100000,-0.100000)"
fill="#000000" stroke="none">
<path d="M518 2501 c-1 -6 -16 -12 -32 -13 -18 -2 -31 -9 -34 -20 -2 -10 -9
-18 -14 -18 -5 0 -6 -4 -3 -10 3 -5 -1 -10 -9 -10 -9 0 -18 -13 -22 -35 -15
-81 61 -179 159 -206 46 -13 157 -18 157 -7 0 3 8 5 18 3 9 -2 19 -4 22 -4 3
-1 6 -32 7 -69 l3 -68 -55 -23 c-30 -12 -72 -24 -92 -25 -48 -3 -186 -51 -235
-82 -70 -44 -85 -93 -62 -194 8 -30 26 -80 42 -110 35 -68 149 -252 177 -284
11 -13 26 -32 32 -43 7 -10 24 -34 37 -53 46 -65 96 -178 96 -214 0 -12 5 -27
12 -34 7 -7 8 -12 2 -12 -7 0 -9 -22 -7 -57 4 -54 3 -57 -11 -39 -9 11 -16 23
-16 27 0 11 -116 37 -154 33 -19 -2 -46 -10 -60 -19 -16 -11 -33 -14 -47 -10
-14 5 -19 3 -15 -3 8 -13 -39 -46 -53 -38 -10 6 -51 -31 -51 -46 0 -4 -9 -8
-20 -8 -18 0 -26 -20 -21 -52 0 -4 -6 -5 -15 -1 -13 5 -15 2 -9 -15 4 -14 2
-22 -5 -22 -8 0 -10 -10 -8 -25 3 -13 2 -22 -2 -20 -12 7 -33 -23 -27 -39 3
-8 3 -17 -1 -21 -4 -4 -7 -10 -8 -13 0 -4 -4 -14 -8 -22 -3 -9 -3 -43 2 -77 6
-41 5 -66 -2 -73 -7 -7 -6 -10 1 -10 7 0 15 -10 19 -22 4 -13 14 -29 23 -36
15 -12 14 -13 -1 -8 -22 7 -24 -17 -3 -34 8 -7 12 -16 9 -21 -8 -13 25 -59 84
-117 54 -54 154 -110 212 -118 16 -2 44 -6 61 -8 17 -3 42 -1 54 4 14 5 25 5
27 0 2 -5 31 -3 68 6 36 8 72 15 80 16 8 0 22 7 31 15 9 7 20 13 25 11 13 -3
54 12 54 21 0 4 15 12 34 19 18 7 48 27 64 45 66 68 82 89 77 97 -3 4 2 10 9
13 16 6 56 90 56 117 0 9 3 20 7 24 5 4 8 11 8 14 1 4 5 25 9 47 14 63 15 74
17 176 1 59 -3 105 -11 119 -6 12 -10 30 -7 40 3 10 -2 28 -10 39 -8 12 -11
21 -8 21 3 0 -1 10 -9 22 -9 12 -16 33 -16 45 0 25 -41 107 -110 218 -23 39
-51 86 -62 105 -11 19 -33 59 -50 87 -41 74 -52 113 -30 114 21 1 7 -2 265 59
120 28 235 58 255 67 77 31 139 62 191 92 58 35 74 32 86 -17 3 -15 14 -38 23
-52 15 -23 37 -73 47 -110 8 -29 31 -85 43 -107 15 -26 17 -56 2 -33 -7 12 -9
10 -7 -7 0 -12 5 -19 9 -17 9 6 28 -37 21 -48 -2 -5 1 -8 8 -8 9 0 9 -3 0 -14
-13 -16 0 -53 23 -68 8 -6 7 -10 -2 -16 -14 -9 -6 -66 7 -58 4 3 12 -4 19 -14
10 -16 9 -18 -3 -14 -8 4 -15 1 -15 -5 0 -6 5 -11 11 -11 6 0 9 -9 6 -20 -3
-14 1 -24 15 -31 18 -10 19 -11 2 -23 -11 -8 -15 -20 -11 -30 9 -22 -1 -39
-16 -29 -14 9 -54 15 -88 15 -22 -1 -26 3 -21 20 4 18 2 20 -27 13 -17 -4 -31
-3 -31 3 0 26 -146 -15 -157 -45 -3 -7 -9 -13 -15 -13 -17 0 -78 -52 -78 -66
0 -8 -4 -14 -10 -14 -5 0 -10 -5 -10 -11 0 -6 -8 -23 -19 -37 -25 -36 -49
-115 -57 -182 -3 -30 -8 -57 -10 -59 -2 -2 1 -12 7 -23 5 -10 7 -24 2 -30 -16
-27 13 -179 42 -221 8 -12 15 -29 15 -38 0 -23 69 -92 123 -123 24 -14 61 -27
84 -29 22 -2 45 -7 50 -10 16 -10 181 -11 225 -1 13 3 34 7 47 10 14 3 28 7
33 10 4 3 17 7 28 10 11 2 29 6 39 8 45 10 134 67 184 118 50 50 102 156 112
228 3 25 7 52 8 60 2 8 6 20 10 26 7 12 9 211 3 279 -13 129 -21 179 -42 260
-14 50 -32 117 -41 150 -23 85 -78 208 -203 450 -190 371 -272 515 -289 515
-5 0 -27 -7 -50 -15 -40 -14 -41 -14 -31 5 12 23 11 24 -26 10 -15 -6 -42 -13
-62 -16 -19 -3 -42 -7 -51 -10 -50 -12 -183 -43 -226 -52 -27 -5 -77 -17 -110
-25 -33 -8 -96 -20 -139 -27 -43 -6 -124 -25 -180 -40 -108 -30 -121 -28 -109
20 4 13 6 30 6 37 0 9 8 10 26 5 25 -6 78 -6 111 1 8 2 38 7 65 12 65 10 140
48 162 81 23 35 20 109 -5 143 -53 72 -136 89 -229 46 -30 -14 -62 -25 -70
-25 -7 0 -33 -19 -56 -43 l-42 -44 -22 34 c-14 21 -18 33 -10 34 7 0 2 4 -10
9 -13 6 -23 18 -23 30 0 11 -7 20 -15 20 -8 0 -14 6 -12 13 1 6 -6 11 -15 11
-10 -1 -18 2 -18 8 0 5 -4 6 -10 3 -5 -3 -10 -1 -10 6 0 8 -5 7 -17 -2 -10 -8
-14 -9 -10 -2 9 15 -1 21 -46 28 -20 4 -36 2 -39 -4z m1357 -1260 c-6 -5 -25
10 -25 20 0 5 6 4 14 -3 8 -7 12 -15 11 -17z m-1535 -413 c-13 -13 -19 -16
-15 -8 14 25 28 41 32 36 3 -3 -5 -15 -17 -28z"/>
</g>
</svg>
